<?xml version="1.0" encoding="UTF-8" standalone="no"?>
<!-- Created with Inkscape (http://www.inkscape.org/) -->

<svg
   version="1.1"
   id="svg19389"
   width="548.60547"
   height="190"
   viewBox="0 0 548.60547 189.99999"
   sodipodi:docname="f_blueprint.svg"
   inkscape:version="1.4 (86a8ad7, 2024-10-11)"
   xmlns:inkscape="http://www.inkscape.org/namespaces/inkscape"
   xmlns:sodipodi="http://sodipodi.sourceforge.net/DTD/sodipodi-0.dtd"
   xmlns="http://www.w3.org/2000/svg"
   xmlns:svg="http://www.w3.org/2000/svg">
  <defs
     id="defs19393" />
  <sodipodi:namedview
     id="namedview19391"
     pagecolor="#ffffff"
     bordercolor="#000000"
     borderopacity="0.25"
     inkscape:showpageshadow="2"
     inkscape:pageopacity="0.0"
     inkscape:pagecheckerboard="0"
     inkscape:deskcolor="#d1d1d1"
     showgrid="false"
     inkscape:zoom="1.5393751"
     inkscape:cx="259.19609"
     inkscape:cy="20.138042"
     inkscape:window-width="1800"
     inkscape:window-height="1096"
     inkscape:window-x="-9"
     inkscape:window-y="130"
     inkscape:window-maximized="1"
     inkscape:current-layer="g19395" />
  <g
     id="g19395"
     inkscape:groupmode="layer"
     inkscape:label="fiches d'aide-1"
     transform="matrix(1.3333333,0,0,-1.3333333,-62.830606,1007.6427)">
    <g
       id="g1"
       transform="translate(19.272946,-29.35008)">
      <g
         id="g19397"
         transform="translate(28.34997,-159.53117)"
         style="stroke:#808080;stroke-opacity:1">
        <path
           d="m 0,841.9 410.4544,-0.0283"
           style="fill:none;stroke:#808080;stroke-width:0.99992;stroke-linecap:butt;stroke-linejoin:round;stroke-miterlimit:10;stroke-dasharray:none;stroke-opacity:1"
           id="path19399" />
      </g>
      <g
         id="g19401"
         transform="translate(28.34997,-115.3436)"
         style="stroke:#808080;stroke-opacity:1">
        <path
           d="M 0,819.79214 C 0,831.92014 26.77717,841.9 59.31814,841.9 c 32.54096,0 59.31813,-9.97986 59.31816,-22.10786 0,0 0,0 0,0 0,0 0,0 0,0 0,-12.12803 -26.7772,-22.10788 -59.31816,-22.10788 0,0 0,0 0,0 C 26.77717,797.68426 0,807.66411 0,819.79214 Z"
           style="fill:#ffffff;fill-opacity:1;fill-rule:nonzero;stroke:#808080;stroke-width:0.99992;stroke-linecap:butt;stroke-linejoin:round;stroke-miterlimit:10;stroke-dasharray:none;stroke-opacity:1"
           id="path19403" />
      </g>
      <g
         id="g19419"
         transform="translate(115.6225,-134.43432)"
         style="stroke:#808080;stroke-opacity:1">
        <path
           d="m 0,832.35467 c 0,5.23641 4.6167,9.54533 10.22715,9.54533 5.61047,0 10.22717,-4.30892 10.22717,-9.54533 0,0 0,0 0,0 0,0 0,0 0,0 0,-5.23644 -4.6167,-9.54536 -10.22717,-9.54536 0,0 0,0 0,0 C 4.6167,822.80931 0,827.11823 0,832.35467 Z"
           style="fill:#ffffff;fill-opacity:1;fill-rule:nonzero;stroke:#808080;stroke-width:0.99998;stroke-linecap:butt;stroke-linejoin:round;stroke-miterlimit:10;stroke-dasharray:none;stroke-opacity:1"
           id="path19421" />
      </g>
      <g
         id="g19423"
         transform="translate(320.16787,-115.11187)"
         style="stroke:#808080;stroke-opacity:1">
        <path
           d="M 0,819.79209 C 0,831.92014 26.77717,841.9 59.31814,841.9 c 32.54096,0 59.31813,-9.97986 59.31816,-22.10791 0,0 0,0 0,0 0,0 0,0 0,0 0,-12.12804 -26.7772,-22.10792 -59.31816,-22.10792 0,0 0,0 0,0 C 26.77717,797.68417 0,807.66405 0,819.79209 Z"
           style="fill:#ffffff;fill-opacity:1;fill-rule:nonzero;stroke:#808080;stroke-width:0.99992;stroke-linecap:butt;stroke-linejoin:round;stroke-miterlimit:10;stroke-dasharray:none;stroke-opacity:1"
           id="path19425" />
      </g>
      <g
         id="g19441"
         transform="translate(331.07675,-124.88927)"
         style="stroke:#808080;stroke-opacity:1">
        <path
           d="m 0,832.35461 c 0,5.23644 4.6167,9.54539 10.2272,9.54539 5.61048,0 10.22721,-4.30895 10.22721,-9.54539 0,0 0,0 0,0 0,0 0,0 0,0 0,-5.23644 -4.61673,-9.54538 -10.22721,-9.54538 0,0 0,0 0,0 C 4.6167,822.80923 0,827.11817 0,832.35461 Z"
           style="fill:#ffffff;fill-opacity:1;fill-rule:nonzero;stroke:#808080;stroke-width:0.99998;stroke-linecap:butt;stroke-linejoin:round;stroke-miterlimit:10;stroke-dasharray:none;stroke-opacity:1"
           id="path19443" />
      </g>
      <g
         id="g19445"
         transform="translate(280.35244,-118.24512)"
         style="stroke:#808080;stroke-opacity:1">
        <path
           d="M 44.58773,831.16593 15.26933,835.93877 4.35988,802.52889 0,804.02539 12.37382,841.9 49.49991,834.77585 Z"
           style="fill:#ffffff;fill-opacity:1;fill-rule:nonzero;stroke:#808080;stroke-width:0.99992;stroke-linecap:butt;stroke-linejoin:round;stroke-miterlimit:10;stroke-dasharray:none;stroke-opacity:1"
           id="path19447" />
      </g>
      <g
         id="g19449"
         transform="translate(280.35244,-157.24511)">
        <path
           d="m 0,839.4626 c 0,1.33713 1.10027,2.4374 2.4374,2.4374 1.3371,0 2.4374,-1.10027 2.4374,-2.4374 0,0 0,0 0,0 0,0 0,0 0,0 0,-1.3371 -1.1003,-2.4374 -2.4374,-2.4374 0,0 0,0 0,0 -1.33713,0 -2.4374,1.1003 -2.4374,2.4374 z"
           style="fill:#ffc000;fill-opacity:1;fill-rule:nonzero;stroke:#ffc000;stroke-width:0.99998;stroke-linecap:butt;stroke-linejoin:round;stroke-miterlimit:10;stroke-dasharray:none;stroke-opacity:1"
           id="path19451" />
      </g>
      <g
         id="g19453"
         transform="translate(255.85243,-157.24511)">
        <path
           d="m 0,839.4626 c 0,1.33713 1.10027,2.4374 2.4374,2.4374 1.3371,0 2.4374,-1.10027 2.4374,-2.4374 0,0 0,0 0,0 0,0 0,0 0,0 0,-1.3371 -1.1003,-2.4374 -2.4374,-2.4374 0,0 0,0 0,0 -1.33713,0 -2.4374,1.1003 -2.4374,2.4374 z"
           style="fill:#ffc000;fill-opacity:1;fill-rule:nonzero;stroke:#ffc000;stroke-width:0.99998;stroke-linecap:butt;stroke-linejoin:round;stroke-miterlimit:10;stroke-dasharray:none;stroke-opacity:1"
           id="path19455" />
      </g>
      <g
         id="g19457"
         transform="translate(233.57699,-157.24511)">
        <path
           d="m 0,839.4626 c 0,1.33713 1.10027,2.4374 2.4374,2.4374 1.3371,0 2.4374,-1.10027 2.4374,-2.4374 0,0 0,0 0,0 0,0 0,0 0,0 0,-1.3371 -1.1003,-2.4374 -2.4374,-2.4374 0,0 0,0 0,0 -1.33713,0 -2.4374,1.1003 -2.4374,2.4374 z"
           style="fill:#ffc000;fill-opacity:1;fill-rule:nonzero;stroke:#ffc000;stroke-width:0.99998;stroke-linecap:butt;stroke-linejoin:round;stroke-miterlimit:10;stroke-dasharray:none;stroke-opacity:1"
           id="path19459" />
      </g>
      <g
         id="g19461"
         transform="translate(210.35242,-157.24511)">
        <path
           d="m 0,839.4626 c 0,1.33713 1.10027,2.4374 2.4374,2.4374 1.3371,0 2.4374,-1.10027 2.4374,-2.4374 0,0 0,0 0,0 0,0 0,0 0,0 0,-1.3371 -1.1003,-2.4374 -2.4374,-2.4374 0,0 0,0 0,0 -1.33713,0 -2.4374,1.1003 -2.4374,2.4374 z"
           style="fill:#ffc000;fill-opacity:1;fill-rule:nonzero;stroke:#ffc000;stroke-width:0.99998;stroke-linecap:butt;stroke-linejoin:round;stroke-miterlimit:10;stroke-dasharray:none;stroke-opacity:1"
           id="path19463" />
      </g>
      <g
         id="g19465"
         transform="translate(187.37646,-157.24511)">
        <path
           d="m 0,839.4626 c 0,1.33713 1.10027,2.4374 2.4374,2.4374 1.3371,0 2.4374,-1.10027 2.4374,-2.4374 0,0 0,0 0,0 0,0 0,0 0,0 0,-1.3371 -1.1003,-2.4374 -2.4374,-2.4374 0,0 0,0 0,0 -1.33713,0 -2.4374,1.1003 -2.4374,2.4374 z"
           style="fill:#ffc000;fill-opacity:1;fill-rule:nonzero;stroke:#ffc000;stroke-width:0.99998;stroke-linecap:butt;stroke-linejoin:round;stroke-miterlimit:10;stroke-dasharray:none;stroke-opacity:1"
           id="path19467" />
      </g>
      <g
         id="g19469"
         transform="translate(164.37637,-157.24511)">
        <path
           d="m 0,839.4626 c 0,1.33713 1.10027,2.4374 2.4374,2.4374 1.3371,0 2.4374,-1.10027 2.4374,-2.4374 0,0 0,0 0,0 0,0 0,0 0,0 0,-1.3371 -1.1003,-2.4374 -2.4374,-2.4374 0,0 0,0 0,0 -1.33713,0 -2.4374,1.1003 -2.4374,2.4374 z"
           style="fill:#ffc000;fill-opacity:1;fill-rule:nonzero;stroke:#ffc000;stroke-width:0.99998;stroke-linecap:butt;stroke-linejoin:round;stroke-miterlimit:10;stroke-dasharray:none;stroke-opacity:1"
           id="path19471" />
      </g>
      <g
         id="g19473"
         transform="translate(141.6026,-157.24511)">
        <path
           d="m 0,839.4626 c 0,1.33713 1.10027,2.4374 2.4374,2.4374 1.3371,0 2.4374,-1.10027 2.4374,-2.4374 0,0 0,0 0,0 0,0 0,0 0,0 0,-1.3371 -1.1003,-2.4374 -2.4374,-2.4374 0,0 0,0 0,0 -1.33713,0 -2.4374,1.1003 -2.4374,2.4374 z"
           style="fill:#ffc000;fill-opacity:1;fill-rule:nonzero;stroke:#ffc000;stroke-width:0.99998;stroke-linecap:butt;stroke-linejoin:round;stroke-miterlimit:10;stroke-dasharray:none;stroke-opacity:1"
           id="path19475" />
      </g>
      <g
         id="g19477"
         transform="translate(126.4911,-144.85399)">
        <path
           d="m 0,841.9 c 1.37497,-2.07729 2.74997,-4.1546 3.49999,-6.6879 0.74999,-2.53329 0.875,-5.52257 1.00001,-8.51184"
           style="fill:none;stroke:#ffc000;stroke-width:2.25;stroke-linecap:butt;stroke-linejoin:round;stroke-miterlimit:10;stroke-dasharray:none;stroke-opacity:1"
           id="path19479" />
      </g>
      <g
         id="g19481"
         transform="translate(126.4911,-144.85399)">
        <path
           d="m 0.84592,833.30334 3.65405,-6.60308 3.09005,6.8851 z"
           style="fill:#ffc000;fill-opacity:1;fill-rule:nonzero;stroke:none"
           id="path19483" />
      </g>
      <g
         id="g19485"
         transform="translate(126.4911,-144.85399)">
        <path
           d="m 0.84592,833.30334 3.65405,-6.60308 3.09005,6.8851 z"
           style="fill:none;stroke:#ffc000;stroke-width:2.25;stroke-linecap:butt;stroke-linejoin:round;stroke-miterlimit:10;stroke-dasharray:none;stroke-opacity:1"
           id="path19487" />
      </g>
      <g
         id="g19489"
         transform="translate(283.45581,-121.57659)">
        <path
           d="m 0,808.6182 c 7.03083,22.50065 1.40536,3.75267 11.2496,33.2818 28.59319,-5.15637 28.12473,-4.68717 46.40653,-12.65477"
           style="fill:none;stroke:#7030a0;stroke-width:2.25;stroke-linecap:butt;stroke-linejoin:round;stroke-miterlimit:10;stroke-dasharray:none;stroke-opacity:1"
           id="path19491" />
      </g>
      <g
         id="g19493"
         transform="translate(283.45581,-121.57659)">
        <path
           d="m 50.11985,828.8481 7.53628,0.39713 -4.83948,5.79073 z"
           style="fill:#7030a0;fill-opacity:1;fill-rule:nonzero;stroke:none"
           id="path19495" />
      </g>
      <g
         id="g19497"
         transform="translate(283.45581,-121.57659)">
        <path
           d="m 50.11985,828.8481 7.53628,0.39713 -4.83948,5.79073 z"
           style="fill:none;stroke:#7030a0;stroke-width:2.25;stroke-linecap:butt;stroke-linejoin:round;stroke-miterlimit:10;stroke-dasharray:none;stroke-opacity:1"
           id="path19499" />
      </g>
      <g
         id="g19517"
         transform="rotate(180,62.924795,772.79115)"
         style="stroke:#808080;stroke-opacity:1">
        <path
           d="M 0,841.9 30.6877,807.72151"
           style="fill:none;stroke:#808080;stroke-width:0.99992;stroke-linecap:butt;stroke-linejoin:round;stroke-miterlimit:10;stroke-dasharray:none;stroke-opacity:1"
           id="path19519" />
      </g>
      <g
         id="g19521"
         transform="matrix(1,0,0,-1,312.28384,1562.2232)"
         style="stroke:#808080;stroke-opacity:1">
        <path
           d="M 0,841.9 7.884,812.15096"
           style="fill:none;stroke:#808080;stroke-width:0.99992;stroke-linecap:butt;stroke-linejoin:round;stroke-miterlimit:10;stroke-dasharray:none;stroke-opacity:1"
           id="path19523" />
      </g>
      <g
         id="g19525"
         transform="matrix(1,0,0,-1,122.12433,1501.3991)">
        <path
           d="M 0,841.9 21.9155,821.61947"
           style="fill:none;stroke:#ffc000;stroke-width:0.99992;stroke-linecap:butt;stroke-linejoin:round;stroke-miterlimit:10;stroke-dasharray:none;stroke-opacity:1"
           id="path19527" />
      </g>
      <g
         id="g19529"
         transform="matrix(1,0,0,-1,348.52997,1549.3653)"
         style="stroke:#808080;stroke-opacity:1">
        <path
           d="M 0,841.9 40.23581,781.10915"
           style="fill:none;stroke:#808080;stroke-width:0.99992;stroke-linecap:butt;stroke-linejoin:round;stroke-miterlimit:10;stroke-dasharray:none;stroke-opacity:1"
           id="path19531" />
      </g>
      <g
         id="g19591"
         transform="matrix(0,0.99999,-0.99999,0,983.49412,663.3229)">
        <path
           d="m 10.26306,698.27522 c -2.81509,0 -5.13153,2.4332 -5.13153,5.39016 0,0 0,0 0,0 v 61.03208 c 0,2.95693 -2.31647,5.39016 -5.13153,5.39016 0,0 0,0 0,0 2.81506,0 5.13153,2.43321 5.13153,5.39017 v 61.03204 c 0,2.95696 2.31644,5.39017 5.13153,5.39017"
           style="fill:none;stroke:#ffc000;stroke-width:0.99992;stroke-linecap:butt;stroke-linejoin:round;stroke-miterlimit:10;stroke-dasharray:none;stroke-opacity:1"
           id="path19593" />
      </g>
      <g
         id="g19625"
         transform="rotate(180,145.85558,777.70709)">
        <path
           d="M 0,841.9 15.17944,817.55362"
           style="fill:none;stroke:#7030a0;stroke-width:0.99998;stroke-linecap:butt;stroke-linejoin:round;stroke-miterlimit:10;stroke-dasharray:none;stroke-opacity:1"
           id="path19627" />
      </g>
      <g
         id="g19643"
         transform="rotate(180,140.89854,763.53315)">
        <path
           d="M 0,841.9 32.02676,817.55362"
           style="fill:none;stroke:#7030a0;stroke-width:0.99998;stroke-linecap:butt;stroke-linejoin:round;stroke-miterlimit:10;stroke-dasharray:none;stroke-opacity:1"
           id="path19645" />
      </g>
    </g>
  </g>
</svg>
