<?xml version="1.0" encoding="UTF-8" standalone="no"?>
<!-- Created with Inkscape (http://www.inkscape.org/) -->

<svg
   version="1.1"
   id="svg1"
   width="43.765442"
   height="32.304295"
   viewBox="0 0 43.765442 32.304294"
   sodipodi:docname="discontinu.svg"
   xml:space="preserve"
   inkscape:version="1.4 (86a8ad7, 2024-10-11)"
   xmlns:inkscape="http://www.inkscape.org/namespaces/inkscape"
   xmlns:sodipodi="http://sodipodi.sourceforge.net/DTD/sodipodi-0.dtd"
   xmlns="http://www.w3.org/2000/svg"
   xmlns:svg="http://www.w3.org/2000/svg"><defs
     id="defs1" /><sodipodi:namedview
     id="namedview1"
     pagecolor="#ffffff"
     bordercolor="#000000"
     borderopacity="0.25"
     inkscape:showpageshadow="2"
     inkscape:pageopacity="0.0"
     inkscape:pagecheckerboard="0"
     inkscape:deskcolor="#d1d1d1"
     showgrid="false"
     inkscape:zoom="12.125"
     inkscape:cx="17.85567"
     inkscape:cy="10.185567"
     inkscape:window-width="1920"
     inkscape:window-height="1051"
     inkscape:window-x="1791"
     inkscape:window-y="-9"
     inkscape:window-maximized="1"
     inkscape:current-layer="g1" /><g
     inkscape:groupmode="layer"
     inkscape:label="Image"
     id="g1"
     transform="translate(0.44329904,-0.01030921)"><path
       style="fill:#000000"
       d="M 3.7715037,30.042916 C -5.1668811,25.975165 1.0997045,11.39007 13.311084,7.8401258 16.429231,6.9336559 20.729638,5.0344356 22.867544,3.6196361 32.438651,-2.7142229 44.022914,-0.33465385 43.288956,7.8144769 41.696201,25.498832 20.269822,37.551101 3.7715037,30.042916 Z M 20.392969,29.491708 C 39.206317,25.92383 51.860424,2.4673327 34.971844,2.4673327 c -8.009287,0 -15.212655,2.9244934 -9.95034,4.039736 3.798697,0.805058 1.084835,1.6979131 -7.056809,2.321676 C 1.7290402,10.072621 -5.7284886,26.562047 8.6648627,29.391707 14.71879,30.581879 14.647718,30.581273 20.392969,29.491708 Z"
       id="path2" /></g></svg>
