<?xml version="1.0" encoding="UTF-8" standalone="no"?>
<!-- Created with Inkscape (http://www.inkscape.org/) -->

<svg
   version="1.1"
   id="svg1"
   width="46.892673"
   height="28.791796"
   viewBox="0 0 46.892674 28.791795"
   sodipodi:docname="unclear.svg"
   xml:space="preserve"
   inkscape:version="1.4 (86a8ad7, 2024-10-11)"
   xmlns:inkscape="http://www.inkscape.org/namespaces/inkscape"
   xmlns:sodipodi="http://sodipodi.sourceforge.net/DTD/sodipodi-0.dtd"
   xmlns="http://www.w3.org/2000/svg"
   xmlns:svg="http://www.w3.org/2000/svg"><defs
     id="defs1" /><sodipodi:namedview
     id="namedview1"
     pagecolor="#ffffff"
     bordercolor="#000000"
     borderopacity="0.25"
     inkscape:showpageshadow="2"
     inkscape:pageopacity="0.0"
     inkscape:pagecheckerboard="0"
     inkscape:deskcolor="#d1d1d1"
     showgrid="false"
     inkscape:zoom="24.25"
     inkscape:cx="25.938144"
     inkscape:cy="15.731959"
     inkscape:window-width="1920"
     inkscape:window-height="1051"
     inkscape:window-x="1791"
     inkscape:window-y="-9"
     inkscape:window-maximized="1"
     inkscape:current-layer="g1" /><g
     inkscape:groupmode="layer"
     inkscape:label="Image"
     id="g1"
     transform="translate(-0.55670096,4.9896908)"><path
       style="fill:#000000"
       d="M 0.55807096,22.482913 C 0.42357106,14.428638 10.223827,2.4171287 16.126317,3.4019678 c 4.874046,0.8132415 14.55063,-0.435854 18.267825,-2.3580903 1.783262,-0.9221608 3.170064,-1.1087905 3.771326,-0.5075285 0.601262,0.601262 2.364799,-0.3440912 4.795834,-2.570833 2.114688,-1.9369787 4.116202,-3.2423903 4.447809,-2.9009147 0.331607,0.3414756 -1.422078,2.3740732 -3.897078,4.5168836 -4.288301,3.7127339 -6.830136,5.0536346 -5.5,2.9014288 1.025193,-1.6587974 -0.775632,-1.127945 -5,1.4739138 -4.026053,2.479714 -6.013219,3.164526 -5.153794,1.776086 0.255332,-0.4125 -3.094588,-0.646906 -7.444266,-0.520902 -8.547389,0.247606 -13.4987414,2.273279 -12.42107,5.0816455 0.3364454,0.876762 -0.5181928,2.662551 -2.0288534,4.23934 -1.4355972,1.498441 -3.2298388,4.46267 -3.9872036,6.587177 -1.12748965,3.162754 -1.3845924,3.409703 -1.41877504,1.362739 z"
       id="path2"
       sodipodi:nodetypes="sssssssssssssss" /></g></svg>
